<svg xmlns="http://www.w3.org/2000/svg" viewBox="0 0 32 32">
  <rect width="32" height="32" rx="6" fill="#1a1a1a"/>
  <path fill="#e8901a" transform="translate(4,4)" d="M20.19 11.04c.05-.34.07-.69.07-1.04s-.02-.7-.07-1.04l2.24-1.75c.2-.16.26-.45.13-.68l-2.12-3.67c-.13-.24-.41-.32-.65-.24l-2.64 1.06c-.55-.42-1.14-.77-1.79-1.04l-.4-2.81C14.93.6 14.69.4 14.4.4h-4.24c-.29 0-.53.2-.57.47l-.4 2.81c-.65.27-1.24.63-1.79 1.04L4.76 3.66c-.24-.09-.52 0-.65.24L1.99 7.57c-.14.23-.09.52.13.68l2.24 1.75c-.05.34-.08.7-.08 1.04s.02.7.07 1.04L2.11 13.83c-.2.16-.26.45-.13.68l2.12 3.67c.13.24.41.32.65.24l2.64-1.06c.55.42 1.14.77 1.79 1.04l.4 2.81c.05.27.29.47.57.47h4.24c.29 0 .53-.2.57-.47l.4-2.81c.65-.27 1.24-.62 1.79-1.04l2.64 1.06c.24.09.52 0 .65-.24l2.12-3.67c.13-.24.08-.52-.13-.68l-2.24-1.75zM12.28 14c-2.19 0-3.96-1.78-3.96-3.96s1.78-3.96 3.96-3.96 3.96 1.78 3.96 3.96S14.46 14 12.28 14z"/>
</svg>
